<mxfile host="app.diagrams.net" agent="Mozilla/5.0 (Macintosh; Intel Mac OS X 10_15_7) AppleWebKit/605.1.15 (KHTML, like Gecko) Version/17.5 Safari/605.1.15" version="24.7.8">
  <diagram name="Page-1" id="DfgF07pSp3SU1vPiNN7P">
    <mxGraphModel dx="1633" dy="484" grid="1" gridSize="10" guides="1" tooltips="1" connect="1" arrows="1" fold="1" page="1" pageScale="1" pageWidth="1100" pageHeight="850" math="0" shadow="0">
      <root>
        <mxCell id="0" />
        <mxCell id="1" parent="0" />
        <mxCell id="8cZCbVJFZoDK88C4Q4Ue-1" value="" style="sketch=0;points=[[0.015,0.015,0],[0.985,0.015,0],[0.985,0.985,0],[0.015,0.985,0],[0.25,0,0],[0.5,0,0],[0.75,0,0],[1,0.25,0],[1,0.5,0],[1,0.75,0],[0.75,1,0],[0.5,1,0],[0.25,1,0],[0,0.75,0],[0,0.5,0],[0,0.25,0]];verticalLabelPosition=bottom;html=1;verticalAlign=top;aspect=fixed;align=center;pointerEvents=1;shape=mxgraph.cisco19.rect;prIcon=l3_switch;fillColor=#FAFAFA;strokeColor=#005073;" parent="1" vertex="1">
          <mxGeometry x="-665" y="233.5" width="50" height="50" as="geometry" />
        </mxCell>
        <mxCell id="8cZCbVJFZoDK88C4Q4Ue-3" value="" style="sketch=0;points=[[0.015,0.015,0],[0.985,0.015,0],[0.985,0.985,0],[0.015,0.985,0],[0.25,0,0],[0.5,0,0],[0.75,0,0],[1,0.25,0],[1,0.5,0],[1,0.75,0],[0.75,1,0],[0.5,1,0],[0.25,1,0],[0,0.75,0],[0,0.5,0],[0,0.25,0]];verticalLabelPosition=bottom;html=1;verticalAlign=top;aspect=fixed;align=center;pointerEvents=1;shape=mxgraph.cisco19.rect;prIcon=l3_switch;fillColor=#FAFAFA;strokeColor=#005073;" parent="1" vertex="1">
          <mxGeometry x="-469" y="233.5" width="50" height="50" as="geometry" />
        </mxCell>
        <mxCell id="8cZCbVJFZoDK88C4Q4Ue-4" value="" style="sketch=0;points=[[0,0,0],[0.25,0,0],[0.5,0,0],[0.75,0,0],[1,0,0],[0,1,0],[0.25,1,0],[0.5,1,0],[0.75,1,0],[1,1,0],[0,0.25,0],[0,0.5,0],[0,0.75,0],[1,0.25,0],[1,0.5,0],[1,0.75,0]];outlineConnect=0;fontColor=#232F3E;fillColor=#DD344C;strokeColor=#ffffff;dashed=0;verticalLabelPosition=bottom;verticalAlign=top;align=center;html=1;fontSize=12;fontStyle=0;aspect=fixed;shape=mxgraph.aws4.resourceIcon;resIcon=mxgraph.aws4.network_firewall;" parent="1" vertex="1">
          <mxGeometry x="-279" y="230" width="50" height="50" as="geometry" />
        </mxCell>
        <mxCell id="8cZCbVJFZoDK88C4Q4Ue-5" value="" style="sketch=0;points=[[0.015,0.015,0],[0.985,0.015,0],[0.985,0.985,0],[0.015,0.985,0],[0.25,0,0],[0.5,0,0],[0.75,0,0],[1,0.25,0],[1,0.5,0],[1,0.75,0],[0.75,1,0],[0.5,1,0],[0.25,1,0],[0,0.75,0],[0,0.5,0],[0,0.25,0]];verticalLabelPosition=bottom;html=1;verticalAlign=top;aspect=fixed;align=center;pointerEvents=1;shape=mxgraph.cisco19.rect;prIcon=l3_switch;fillColor=#FAFAFA;strokeColor=#005073;" parent="1" vertex="1">
          <mxGeometry x="-853.5" y="230" width="50" height="50" as="geometry" />
        </mxCell>
        <mxCell id="8cZCbVJFZoDK88C4Q4Ue-6" value="HIGHSPEED:&lt;div&gt;STORAGE ZONE&lt;/div&gt;" style="rounded=1;whiteSpace=wrap;html=1;fillColor=none;strokeWidth=2;verticalAlign=top;fontStyle=1" parent="1" vertex="1">
          <mxGeometry x="-916" y="359.5" width="141" height="80.5" as="geometry" />
        </mxCell>
        <mxCell id="8cZCbVJFZoDK88C4Q4Ue-7" value="HIGHSPEED: KUBERNETES PROD" style="rounded=1;whiteSpace=wrap;html=1;fillColor=none;strokeWidth=2;verticalAlign=top;fontStyle=1" parent="1" vertex="1">
          <mxGeometry x="-710.5" y="357.5" width="141" height="82.5" as="geometry" />
        </mxCell>
        <mxCell id="8cZCbVJFZoDK88C4Q4Ue-8" value="HIGHSPEED: KUBERNETES STAGE" style="rounded=1;whiteSpace=wrap;html=1;fillColor=none;strokeWidth=2;verticalAlign=top;fontStyle=1" parent="1" vertex="1">
          <mxGeometry x="-514.5" y="357.5" width="141" height="82.5" as="geometry" />
        </mxCell>
        <mxCell id="8cZCbVJFZoDK88C4Q4Ue-9" value="SECURED:&lt;div&gt;FIREWALL ZONE&lt;/div&gt;" style="rounded=1;whiteSpace=wrap;html=1;fillColor=none;strokeWidth=2;verticalAlign=top;fontStyle=1" parent="1" vertex="1">
          <mxGeometry x="-324.5" y="359.5" width="141" height="80.5" as="geometry" />
        </mxCell>
        <mxCell id="8cZCbVJFZoDK88C4Q4Ue-10" value="&lt;font style=&quot;font-size: 10px;&quot;&gt;&lt;b&gt;Switch L3 Gateway&lt;/b&gt;&lt;/font&gt;" style="text;html=1;align=center;verticalAlign=middle;whiteSpace=wrap;rounded=0;fontSize=16;" parent="1" vertex="1">
          <mxGeometry x="-529" y="245.5" width="60" height="30" as="geometry" />
        </mxCell>
        <mxCell id="8cZCbVJFZoDK88C4Q4Ue-11" value="&lt;font style=&quot;font-size: 10px;&quot;&gt;&lt;b&gt;Switch L3 Gateway&lt;/b&gt;&lt;/font&gt;" style="text;html=1;align=center;verticalAlign=middle;whiteSpace=wrap;rounded=0;fontSize=16;" parent="1" vertex="1">
          <mxGeometry x="-725" y="243.5" width="60" height="30" as="geometry" />
        </mxCell>
        <mxCell id="8cZCbVJFZoDK88C4Q4Ue-12" value="&lt;font style=&quot;font-size: 10px;&quot;&gt;&lt;b&gt;Switch L3 Gateway&lt;/b&gt;&lt;/font&gt;" style="text;html=1;align=center;verticalAlign=middle;whiteSpace=wrap;rounded=0;fontSize=16;" parent="1" vertex="1">
          <mxGeometry x="-910.5" y="237.5" width="60" height="30" as="geometry" />
        </mxCell>
        <mxCell id="8cZCbVJFZoDK88C4Q4Ue-13" value="&lt;font size=&quot;1&quot;&gt;&lt;b&gt;Firewall Gateway&lt;/b&gt;&lt;/font&gt;" style="text;html=1;align=center;verticalAlign=middle;whiteSpace=wrap;rounded=0;fontSize=16;" parent="1" vertex="1">
          <mxGeometry x="-332.5" y="243.5" width="60" height="32" as="geometry" />
        </mxCell>
        <mxCell id="8cZCbVJFZoDK88C4Q4Ue-20" value="" style="image;aspect=fixed;html=1;points=[];align=center;fontSize=12;image=img/lib/azure2/networking/IP_Groups.svg;" parent="1" vertex="1">
          <mxGeometry x="-870.5" y="399" width="67" height="52" as="geometry" />
        </mxCell>
        <mxCell id="8cZCbVJFZoDK88C4Q4Ue-21" value="" style="image;aspect=fixed;html=1;points=[];align=center;fontSize=12;image=img/lib/azure2/networking/IP_Groups.svg;" parent="1" vertex="1">
          <mxGeometry x="-665" y="399" width="67" height="52" as="geometry" />
        </mxCell>
        <mxCell id="8cZCbVJFZoDK88C4Q4Ue-22" value="" style="image;aspect=fixed;html=1;points=[];align=center;fontSize=12;image=img/lib/azure2/networking/IP_Groups.svg;" parent="1" vertex="1">
          <mxGeometry x="-469" y="399" width="67" height="52" as="geometry" />
        </mxCell>
        <mxCell id="8cZCbVJFZoDK88C4Q4Ue-23" value="" style="image;aspect=fixed;html=1;points=[];align=center;fontSize=12;image=img/lib/azure2/networking/IP_Groups.svg;" parent="1" vertex="1">
          <mxGeometry x="-279" y="399" width="67" height="52" as="geometry" />
        </mxCell>
        <mxCell id="8cZCbVJFZoDK88C4Q4Ue-25" value="" style="endArrow=none;html=1;rounded=0;fontSize=12;startSize=8;endSize=8;curved=1;entryX=0.5;entryY=1;entryDx=0;entryDy=0;entryPerimeter=0;exitX=0.621;exitY=0.006;exitDx=0;exitDy=0;exitPerimeter=0;" parent="1" edge="1" target="8cZCbVJFZoDK88C4Q4Ue-5" source="8cZCbVJFZoDK88C4Q4Ue-6">
          <mxGeometry width="50" height="50" relative="1" as="geometry">
            <mxPoint x="-800" y="350" as="sourcePoint" />
            <mxPoint x="-820" y="290" as="targetPoint" />
          </mxGeometry>
        </mxCell>
        <mxCell id="8cZCbVJFZoDK88C4Q4Ue-26" value="" style="endArrow=none;html=1;rounded=0;fontSize=12;startSize=8;endSize=8;curved=1;entryX=0.5;entryY=1;entryDx=0;entryDy=0;entryPerimeter=0;exitX=0.5;exitY=0;exitDx=0;exitDy=0;" parent="1" edge="1" target="8cZCbVJFZoDK88C4Q4Ue-1" source="8cZCbVJFZoDK88C4Q4Ue-7">
          <mxGeometry width="50" height="50" relative="1" as="geometry">
            <mxPoint x="-665" y="340" as="sourcePoint" />
            <mxPoint x="-640" y="300" as="targetPoint" />
          </mxGeometry>
        </mxCell>
        <mxCell id="8cZCbVJFZoDK88C4Q4Ue-27" value="" style="endArrow=none;html=1;rounded=0;fontSize=12;startSize=8;endSize=8;curved=1;entryX=0.5;entryY=1;entryDx=0;entryDy=0;entryPerimeter=0;exitX=0.5;exitY=0;exitDx=0;exitDy=0;" parent="1" edge="1" target="8cZCbVJFZoDK88C4Q4Ue-3" source="8cZCbVJFZoDK88C4Q4Ue-8">
          <mxGeometry width="50" height="50" relative="1" as="geometry">
            <mxPoint x="-490" y="340" as="sourcePoint" />
            <mxPoint x="-460" y="290" as="targetPoint" />
          </mxGeometry>
        </mxCell>
        <mxCell id="8cZCbVJFZoDK88C4Q4Ue-28" value="" style="endArrow=none;html=1;rounded=0;fontSize=12;startSize=8;endSize=8;curved=1;entryX=0.5;entryY=1;entryDx=0;entryDy=0;entryPerimeter=0;exitX=0.5;exitY=0;exitDx=0;exitDy=0;" parent="1" source="8cZCbVJFZoDK88C4Q4Ue-9" target="8cZCbVJFZoDK88C4Q4Ue-4" edge="1">
          <mxGeometry width="50" height="50" relative="1" as="geometry">
            <mxPoint x="-840" y="370" as="sourcePoint" />
            <mxPoint x="-790" y="320" as="targetPoint" />
            <Array as="points">
              <mxPoint x="-254" y="320" />
            </Array>
          </mxGeometry>
        </mxCell>
        <mxCell id="uYjCKVZ8ciypdNTfdeA--7" value="VLAN: STORAGE" style="sketch=0;pointerEvents=1;shadow=0;dashed=0;html=1;strokeColor=none;fillColor=#505050;labelPosition=center;verticalLabelPosition=bottom;verticalAlign=top;outlineConnect=0;align=left;shape=mxgraph.office.servers.tunnel_straight;" vertex="1" parent="1">
          <mxGeometry x="-880" y="480" width="59" height="10" as="geometry" />
        </mxCell>
        <mxCell id="uYjCKVZ8ciypdNTfdeA--9" value="VLAN: ISCSI" style="sketch=0;pointerEvents=1;shadow=0;dashed=0;html=1;strokeColor=none;fillColor=#505050;labelPosition=center;verticalLabelPosition=bottom;verticalAlign=top;outlineConnect=0;align=left;shape=mxgraph.office.servers.tunnel_straight;" vertex="1" parent="1">
          <mxGeometry x="-880" y="530" width="59" height="10" as="geometry" />
        </mxCell>
        <mxCell id="uYjCKVZ8ciypdNTfdeA--10" value="VLAN: VMOTION" style="sketch=0;pointerEvents=1;shadow=0;dashed=0;html=1;strokeColor=none;fillColor=#505050;labelPosition=center;verticalLabelPosition=bottom;verticalAlign=top;outlineConnect=0;align=left;shape=mxgraph.office.servers.tunnel_straight;" vertex="1" parent="1">
          <mxGeometry x="-880" y="580" width="59" height="10" as="geometry" />
        </mxCell>
        <mxCell id="uYjCKVZ8ciypdNTfdeA--13" value="VLAN: KUBE_PROD1" style="sketch=0;pointerEvents=1;shadow=0;dashed=0;html=1;strokeColor=none;fillColor=#505050;labelPosition=center;verticalLabelPosition=bottom;verticalAlign=top;outlineConnect=0;align=left;shape=mxgraph.office.servers.tunnel_straight;" vertex="1" parent="1">
          <mxGeometry x="-674" y="480" width="59" height="10" as="geometry" />
        </mxCell>
        <mxCell id="uYjCKVZ8ciypdNTfdeA--14" value="VLAN: KUBE_PROD2" style="sketch=0;pointerEvents=1;shadow=0;dashed=0;html=1;strokeColor=none;fillColor=#505050;labelPosition=center;verticalLabelPosition=bottom;verticalAlign=top;outlineConnect=0;align=left;shape=mxgraph.office.servers.tunnel_straight;" vertex="1" parent="1">
          <mxGeometry x="-674" y="530" width="59" height="10" as="geometry" />
        </mxCell>
        <mxCell id="uYjCKVZ8ciypdNTfdeA--15" value="VLAN: KUBE_PROD3" style="sketch=0;pointerEvents=1;shadow=0;dashed=0;html=1;strokeColor=none;fillColor=#505050;labelPosition=center;verticalLabelPosition=bottom;verticalAlign=top;outlineConnect=0;align=left;shape=mxgraph.office.servers.tunnel_straight;" vertex="1" parent="1">
          <mxGeometry x="-674" y="580" width="59" height="10" as="geometry" />
        </mxCell>
        <mxCell id="uYjCKVZ8ciypdNTfdeA--16" value="VRF:&lt;div&gt;STORAGE&lt;/div&gt;" style="ellipse;whiteSpace=wrap;html=1;aspect=fixed;" vertex="1" parent="1">
          <mxGeometry x="-868.5" y="15" width="80" height="80" as="geometry" />
        </mxCell>
        <mxCell id="uYjCKVZ8ciypdNTfdeA--17" value="VRF: KUBE_PROD" style="ellipse;whiteSpace=wrap;html=1;aspect=fixed;" vertex="1" parent="1">
          <mxGeometry x="-680" y="60" width="80" height="80" as="geometry" />
        </mxCell>
        <mxCell id="uYjCKVZ8ciypdNTfdeA--18" value="VRF: KUBE_STAGE" style="ellipse;whiteSpace=wrap;html=1;aspect=fixed;" vertex="1" parent="1">
          <mxGeometry x="-484" y="95" width="80" height="80" as="geometry" />
        </mxCell>
        <mxCell id="uYjCKVZ8ciypdNTfdeA--19" value="VRF: DEFAULT&amp;nbsp;" style="ellipse;whiteSpace=wrap;html=1;aspect=fixed;" vertex="1" parent="1">
          <mxGeometry x="-140" y="220.5" width="80" height="80" as="geometry" />
        </mxCell>
        <mxCell id="uYjCKVZ8ciypdNTfdeA--20" value="&lt;font style=&quot;font-size: 8px;&quot;&gt;&lt;b&gt;ZONE: HS-STORAGE&lt;/b&gt;&lt;/font&gt;&lt;div&gt;&lt;font style=&quot;font-size: 8px;&quot;&gt;&lt;b&gt;TRANSIT: 10.9.0.0/29&lt;/b&gt;&lt;/font&gt;&lt;/div&gt;" style="rounded=0;whiteSpace=wrap;html=1;fillColor=#dae8fc;strokeColor=#6c8ebf;" vertex="1" parent="1">
          <mxGeometry x="-314" y="70" width="120" height="25" as="geometry" />
        </mxCell>
        <mxCell id="uYjCKVZ8ciypdNTfdeA--22" value="&lt;font style=&quot;font-size: 8px;&quot;&gt;&lt;b&gt;ZONE: HS-KUBE-PROD&lt;/b&gt;&lt;/font&gt;&lt;div&gt;&lt;font style=&quot;font-size: 8px;&quot;&gt;&lt;b&gt;TRANSIT: 10.9.0.8/29&lt;/b&gt;&lt;/font&gt;&lt;/div&gt;" style="rounded=0;whiteSpace=wrap;html=1;fillColor=#dae8fc;strokeColor=#6c8ebf;" vertex="1" parent="1">
          <mxGeometry x="-314" y="105" width="120" height="25" as="geometry" />
        </mxCell>
        <mxCell id="uYjCKVZ8ciypdNTfdeA--23" value="&lt;font style=&quot;font-size: 8px;&quot;&gt;&lt;b&gt;ZONE: HS-KUBE-STAGE&lt;/b&gt;&lt;/font&gt;&lt;div&gt;&lt;font style=&quot;font-size: 8px;&quot;&gt;&lt;b&gt;TRANSIT: 10.9.0.16/29&lt;/b&gt;&lt;/font&gt;&lt;/div&gt;" style="rounded=0;whiteSpace=wrap;html=1;fillColor=#dae8fc;strokeColor=#6c8ebf;" vertex="1" parent="1">
          <mxGeometry x="-314" y="137.5" width="120" height="25" as="geometry" />
        </mxCell>
        <mxCell id="uYjCKVZ8ciypdNTfdeA--24" value="INTERNET" style="ellipse;shape=cloud;whiteSpace=wrap;html=1;" vertex="1" parent="1">
          <mxGeometry x="-130" y="410" width="120" height="80" as="geometry" />
        </mxCell>
        <mxCell id="uYjCKVZ8ciypdNTfdeA--25" value="" style="endArrow=none;html=1;rounded=0;fontSize=12;startSize=8;endSize=8;curved=1;exitX=0.5;exitY=0.081;exitDx=0;exitDy=0;entryX=1;entryY=0.5;entryDx=0;entryDy=0;exitPerimeter=0;" edge="1" parent="1" source="uYjCKVZ8ciypdNTfdeA--24" target="uYjCKVZ8ciypdNTfdeA--19">
          <mxGeometry width="50" height="50" relative="1" as="geometry">
            <mxPoint x="-150" y="261" as="sourcePoint" />
            <mxPoint x="-68" y="231.5" as="targetPoint" />
            <Array as="points">
              <mxPoint x="-20" y="320" />
            </Array>
          </mxGeometry>
        </mxCell>
        <mxCell id="uYjCKVZ8ciypdNTfdeA--28" value="" style="endArrow=none;html=1;rounded=0;fontSize=12;startSize=8;endSize=8;curved=1;exitX=0.5;exitY=0;exitDx=0;exitDy=0;exitPerimeter=0;entryX=0.5;entryY=1;entryDx=0;entryDy=0;" edge="1" parent="1" source="8cZCbVJFZoDK88C4Q4Ue-3" target="uYjCKVZ8ciypdNTfdeA--18">
          <mxGeometry width="50" height="50" relative="1" as="geometry">
            <mxPoint x="-450" y="230" as="sourcePoint" />
            <mxPoint x="-420" y="140" as="targetPoint" />
          </mxGeometry>
        </mxCell>
        <mxCell id="uYjCKVZ8ciypdNTfdeA--30" value="" style="edgeStyle=elbowEdgeStyle;elbow=horizontal;endArrow=oval;html=1;curved=0;rounded=0;fontSize=12;endFill=1;startArrow=oval;startFill=1;entryX=0;entryY=0.5;entryDx=0;entryDy=0;exitX=1;exitY=0.5;exitDx=0;exitDy=0;" edge="1" parent="1" source="uYjCKVZ8ciypdNTfdeA--18" target="uYjCKVZ8ciypdNTfdeA--23">
          <mxGeometry width="50" height="50" relative="1" as="geometry">
            <mxPoint x="-430" y="270" as="sourcePoint" />
            <mxPoint x="-380" y="220" as="targetPoint" />
            <Array as="points">
              <mxPoint x="-360" y="130" />
            </Array>
          </mxGeometry>
        </mxCell>
        <mxCell id="uYjCKVZ8ciypdNTfdeA--33" value="" style="edgeStyle=elbowEdgeStyle;elbow=horizontal;endArrow=oval;html=1;curved=0;rounded=0;fontSize=12;endFill=1;startArrow=oval;startFill=1;entryX=0;entryY=0.75;entryDx=0;entryDy=0;exitX=0.975;exitY=0.25;exitDx=0;exitDy=0;exitPerimeter=0;" edge="1" parent="1" source="uYjCKVZ8ciypdNTfdeA--17">
          <mxGeometry width="50" height="50" relative="1" as="geometry">
            <mxPoint x="-610" y="170" as="sourcePoint" />
            <mxPoint x="-314.0000000000002" y="119.38" as="targetPoint" />
            <Array as="points">
              <mxPoint x="-350" y="85.63" />
            </Array>
          </mxGeometry>
        </mxCell>
        <mxCell id="uYjCKVZ8ciypdNTfdeA--34" value="" style="edgeStyle=elbowEdgeStyle;elbow=horizontal;endArrow=oval;html=1;curved=0;rounded=0;fontSize=12;endFill=1;startArrow=oval;startFill=1;entryX=0;entryY=0.75;entryDx=0;entryDy=0;" edge="1" parent="1" target="uYjCKVZ8ciypdNTfdeA--20">
          <mxGeometry width="50" height="50" relative="1" as="geometry">
            <mxPoint x="-789" y="55" as="sourcePoint" />
            <mxPoint x="-304.0000000000002" y="129.38" as="targetPoint" />
            <Array as="points">
              <mxPoint x="-340" y="70" />
            </Array>
          </mxGeometry>
        </mxCell>
        <mxCell id="uYjCKVZ8ciypdNTfdeA--35" value="" style="endArrow=none;html=1;rounded=0;fontSize=12;startSize=8;endSize=8;curved=1;exitX=0.5;exitY=0;exitDx=0;exitDy=0;exitPerimeter=0;entryX=0.5;entryY=1;entryDx=0;entryDy=0;" edge="1" parent="1" source="8cZCbVJFZoDK88C4Q4Ue-1" target="uYjCKVZ8ciypdNTfdeA--17">
          <mxGeometry width="50" height="50" relative="1" as="geometry">
            <mxPoint x="-434" y="243" as="sourcePoint" />
            <mxPoint x="-434" y="185" as="targetPoint" />
          </mxGeometry>
        </mxCell>
        <mxCell id="uYjCKVZ8ciypdNTfdeA--36" value="" style="endArrow=none;html=1;rounded=0;fontSize=12;startSize=8;endSize=8;curved=1;exitX=0.5;exitY=0;exitDx=0;exitDy=0;exitPerimeter=0;" edge="1" parent="1" source="8cZCbVJFZoDK88C4Q4Ue-5" target="uYjCKVZ8ciypdNTfdeA--16">
          <mxGeometry width="50" height="50" relative="1" as="geometry">
            <mxPoint x="-890" y="220" as="sourcePoint" />
            <mxPoint x="-828" y="100" as="targetPoint" />
          </mxGeometry>
        </mxCell>
      </root>
    </mxGraphModel>
  </diagram>
</mxfile>
